<?xml version="1.0" standalone="no"?>
<!DOCTYPE svg PUBLIC "-//W3C//DTD SVG 20010904//EN"
 "http://www.w3.org/TR/2001/REC-SVG-20010904/DTD/svg10.dtd">
<svg version="1.0" xmlns="http://www.w3.org/2000/svg"
 width="220.000000pt" height="220.000000pt" viewBox="0 0 220.000000 220.000000"
 preserveAspectRatio="xMidYMid meet">

<g transform="translate(0.000000,220.000000) scale(0.100000,-0.100000)"
fill="#000000" stroke="none">
<path d="M0 1100 l0 -1100 1100 0 1100 0 0 1100 0 1100 -1100 0 -1100 0 0
-1100z m771 766 c75 -16 167 -60 219 -105 l35 -30 -365 -365 c-201 -201 -369
-365 -375 -363 -5 2 -29 31 -52 66 -171 251 -81 604 188 746 115 60 227 77
350 51z m908 -1 c203 -48 359 -224 392 -440 10 -69 9 -93 -4 -160 -34 -164
-32 -162 -518 -650 l-439 -440 -370 370 -370 370 437 437 c468 466 480 476
616 513 69 18 177 18 256 0z"/>
<path d="M1500 1508 c-27 -7 -106 -80 -328 -301 l-292 -292 115 -115 115 -115
281 280 c154 154 289 297 300 317 43 83 14 173 -71 216 -48 24 -66 26 -120 10z"/>
</g>
</svg>
