<?xml version="1.0" standalone="no"?>
<!DOCTYPE svg PUBLIC "-//W3C//DTD SVG 20010904//EN"
 "http://www.w3.org/TR/2001/REC-SVG-20010904/DTD/svg10.dtd">
<svg version="1.0" xmlns="http://www.w3.org/2000/svg"
 width="512.000000pt" height="512.000000pt" viewBox="0 0 512.000000 512.000000"
 preserveAspectRatio="xMidYMid meet">

<g transform="translate(0.000000,512.000000) scale(0.100000,-0.100000)"
fill="#000000" stroke="none">
<path d="M2396 5109 c-271 -37 -520 -157 -715 -344 -193 -185 -318 -409 -372
-667 -25 -120 -30 -340 -11 -454 78 -465 398 -849 840 -1008 258 -92 586 -92
844 0 181 65 343 168 478 304 154 154 257 324 319 526 43 139 55 228 54 389
-2 353 -136 663 -394 910 -175 168 -391 280 -634 330 -96 20 -314 27 -409 14z"/>
<path d="M1385 2669 c-509 -331 -837 -844 -955 -1493 l-18 -98 36 -42 c192
-218 329 -347 521 -491 365 -276 799 -457 1247 -521 179 -26 509 -26 688 0
448 64 873 241 1243 518 194 145 330 273 525 494 l36 42 -18 98 c-99 554 -374
1039 -771 1361 -82 67 -286 203 -304 203 -6 0 -31 -21 -55 -46 -88 -90 -257
-212 -377 -272 -297 -148 -677 -184 -998 -94 -228 64 -463 201 -620 361 -27
28 -54 51 -60 51 -6 0 -60 -32 -120 -71z"/>
</g>
</svg>
